<svg width="194" height="49" viewBox="0 0 194 49" fill="none" xmlns="http://www.w3.org/2000/svg">
<path d="M27.6361 46.596C27.7471 46.1338 27.8161 45.6624 27.8425 45.1878C28.0001 43.0727 27.0125 40.8988 25.2691 39.6592C24.358 39.0833 23.4814 40.4749 24.3924 41.0508C25.308 41.6767 25.9782 42.6007 26.2889 43.6653C26.745 44.9248 26.178 46.6748 26.178 47.4738C26.3056 48.4281 29.7679 48.4514 29.9299 47.2774C29.9043 46.7147 28.6803 46.4673 27.6361 46.596Z" fill="#E2B306"/>
<path d="M29.9264 47.2775C29.9224 47.3519 29.9034 47.4248 29.8706 47.4917C29.8378 47.5586 29.7919 47.6183 29.7356 47.667C29.5624 47.0523 28.2508 47.0012 27.525 47.0212C27.2376 47.029 27.0445 47.0545 27.0445 47.0545C27.0445 47.0545 27.0734 46.9291 27.1344 46.7082C27.2764 46.0679 27.6216 44.6719 27.3985 43.7908C26.8736 41.6757 24.9072 40.2342 24.9072 40.2342L25.4854 39.6383C26.9668 41.1309 27.99 43.4535 27.8757 45.2146C27.8465 45.6903 27.7722 46.1622 27.6538 46.6239C27.7828 46.6048 27.9129 46.5926 28.0433 46.5873C29.0509 46.514 29.9142 46.8237 29.9264 47.2775Z" fill="#F9C710"/>
<path d="M27.9279 48.342H27.9168C27.0889 48.342 26.0924 48.12 26.0092 47.4964C26.0086 47.489 26.0086 47.4816 26.0092 47.4742C26.0219 47.1416 26.059 46.8104 26.1202 46.4832C26.2578 45.6243 26.4287 44.5546 26.1279 43.7223C25.8313 42.6906 25.1837 41.7949 24.2969 41.1899C23.7576 40.8492 23.7421 40.2489 24.0028 39.8328C24.1314 39.621 24.3325 39.4633 24.5688 39.3889C24.7008 39.3509 24.8395 39.3425 24.9751 39.3641C25.1106 39.3858 25.2398 39.4371 25.3534 39.5143C27.1289 40.7771 28.1676 43.0054 28.0033 45.196C27.9815 45.6023 27.9285 46.0063 27.8447 46.4044C28.5593 46.3545 29.4282 46.4577 29.8488 46.8161C29.9182 46.8701 29.9755 46.9381 30.0168 47.0158C30.0581 47.0934 30.0826 47.1789 30.0885 47.2667C30.0896 47.2763 30.0896 47.2859 30.0885 47.2955C29.9919 48.0202 28.9344 48.342 27.9279 48.342ZM26.341 47.462C26.3954 47.7672 27.0823 48.0069 27.9179 48.0091H27.9268C28.7801 48.0091 29.6746 47.7561 29.7589 47.27C29.7526 47.2311 29.7386 47.1938 29.7179 47.1603C29.6971 47.1268 29.67 47.0977 29.6379 47.0747C29.3128 46.7973 28.4616 46.663 27.656 46.7618C27.6293 46.7646 27.6023 46.761 27.5772 46.7514C27.5521 46.7417 27.5297 46.7263 27.5117 46.7063C27.4938 46.6862 27.481 46.6621 27.4744 46.636C27.4679 46.6099 27.4677 46.5826 27.474 46.5565C27.5822 46.1055 27.6498 45.6457 27.676 45.1827C27.8313 43.0986 26.8481 40.9869 25.1725 39.795C25.0992 39.7457 25.0162 39.7127 24.9291 39.6984C24.842 39.684 24.7528 39.6886 24.6676 39.7118C24.51 39.7632 24.3758 39.869 24.2892 40.0103C24.1138 40.2877 24.106 40.6761 24.4811 40.9103C25.4327 41.5562 26.1287 42.5144 26.4486 43.6191C26.776 44.5213 26.5973 45.6387 26.4486 46.5354C26.3925 46.8416 26.3565 47.1511 26.341 47.462Z" fill="#E2B306"/>
<path opacity="0.5" d="M30.3907 32.5216C35.4654 31.9416 39.3667 29.612 39.1046 27.3182C38.8424 25.0244 34.5161 23.6351 29.4414 24.2151C24.3668 24.7951 20.4654 27.1247 20.7276 29.4185C20.9898 31.7123 25.3161 33.1016 30.3907 32.5216Z" fill="#F9C710"/>
<path d="M23.0431 31.9502C21.5694 31.341 20.7127 30.4654 20.6017 29.4423C20.4697 28.2649 21.3208 27.0708 23.0275 26.051C24.6921 25.0623 26.9659 24.3587 29.4461 24.0658C31.9263 23.7728 34.2933 23.9548 36.1498 24.5418C38.0363 25.1422 39.146 26.1209 39.2736 27.2983C39.4013 28.4757 38.5546 29.6698 36.8467 30.6885C35.1822 31.6783 32.9095 32.3808 30.4293 32.6737C27.9491 32.9667 25.5821 32.7847 23.7255 32.1977C23.4781 32.1145 23.2561 32.0357 23.0431 31.9502ZM29.4461 24.2145L29.4694 24.3543C24.4757 24.928 20.6306 27.194 20.8847 29.4145C21.1388 31.6351 25.4023 32.9745 30.3916 32.3996C32.8329 32.1233 35.069 31.4364 36.6914 30.4632C38.2893 29.5133 39.1061 28.4025 38.984 27.356C38.7299 25.1366 34.4664 23.7961 29.4772 24.3709L29.4461 24.2145Z" fill="#E2B306"/>
<path d="M20.6792 29.5579C20.6569 29.5498 20.6371 29.5362 20.6215 29.5184C20.606 29.5005 20.5953 29.4789 20.5904 29.4558C20.5846 29.4379 20.5827 29.419 20.5849 29.4003C20.587 29.3816 20.5933 29.3636 20.6031 29.3476C20.6129 29.3315 20.6261 29.3178 20.6417 29.3074C20.6573 29.2969 20.6751 29.29 20.6936 29.2871C20.7857 29.2605 29.5613 26.7681 36.1385 27.2741C36.1762 27.2767 36.2113 27.2942 36.236 27.3227C36.2608 27.3513 36.2732 27.3884 36.2706 27.4261C36.2679 27.4638 36.2504 27.4989 36.2219 27.5236C36.1934 27.5484 36.1562 27.5608 36.1186 27.5582C29.5946 27.0422 20.8523 29.5312 20.7791 29.5556C20.7634 29.5626 20.7465 29.5665 20.7294 29.5668C20.7122 29.5672 20.6952 29.5642 20.6792 29.5579Z" fill="#E2B306"/>
<path opacity="0.5" d="M35.2233 36.9624C36.5692 35.0859 34.2949 31.1508 30.1434 28.1731C25.992 25.1955 21.5354 24.3029 20.1895 26.1794C18.8435 28.0559 21.1179 31.991 25.2693 34.9686C29.4208 37.9463 33.8773 38.8389 35.2233 36.9624Z" fill="#F9C710"/>
<path d="M28.9233 37.2125C27.5981 36.6509 26.3412 35.9402 25.1769 35.0941C23.1573 33.6415 21.5093 31.9181 20.5261 30.2424C19.5407 28.5335 19.3676 27.062 20.0601 26.0955C20.7525 25.1289 22.194 24.8293 24.136 25.2077C26.0314 25.585 28.2009 26.5948 30.2205 28.0486C32.2391 29.5012 33.8826 31.2234 34.8702 32.9002C35.8567 34.6091 36.0298 36.0806 35.3374 37.0472C34.6449 38.0137 33.2034 38.3133 31.2603 37.9349C30.4594 37.7719 29.6765 37.5299 28.9233 37.2125ZM26.3454 26.2042C23.5934 25.0668 21.2086 25.008 20.3086 26.2797C19.6905 27.1475 19.8648 28.4991 20.7925 30.1093C21.7402 31.7539 23.3659 33.4506 25.35 34.8733C27.3342 36.2959 29.4559 37.288 31.3225 37.6664C33.1424 38.0281 34.4907 37.7563 35.1044 36.9029C35.718 36.0495 35.5482 34.6835 34.6205 33.0744C33.6728 31.4287 32.0471 29.732 30.0641 28.3104C28.9109 27.4657 27.6629 26.7589 26.3454 26.2042Z" fill="#E2B306"/>
<path d="M33.106 35.8329C33.0864 35.8249 33.0692 35.8119 33.0561 35.7952C26.673 29.5453 20.1835 26.3427 20.1158 26.3139C20.0815 26.2975 20.0551 26.2682 20.0424 26.2325C20.0297 26.1967 20.0318 26.1573 20.0481 26.123C20.0644 26.0887 20.0937 26.0623 20.1295 26.0496C20.1653 26.0369 20.2047 26.039 20.239 26.0553C20.3089 26.0842 26.8317 29.3178 33.2514 35.5988C33.2643 35.6116 33.2745 35.6268 33.2815 35.6435C33.2885 35.6603 33.2921 35.6783 33.2921 35.6964C33.2921 35.7146 33.2885 35.7326 33.2815 35.7493C33.2745 35.7661 33.2643 35.7813 33.2514 35.7941C33.2365 35.8176 33.2132 35.8347 33.1863 35.8419C33.1594 35.8491 33.1307 35.8459 33.106 35.8329Z" fill="#E2B306"/>
<path d="M35.7956 19.0976C34.5671 23.5231 28.4515 26.5637 23.8107 26.1065C22.6655 25.9333 23.0051 24.2832 24.0415 24.4663C28.0165 24.959 33.4618 22.4256 34.6293 18.6958C34.8956 17.9568 36.0486 18.3485 35.7956 19.0976Z" fill="#E2B306"/>
<path d="M24.7374 26.3175C24.4167 26.3175 24.1016 26.302 23.7942 26.272C23.6181 26.256 23.45 26.1916 23.3083 26.0858C23.1667 25.98 23.0572 25.8371 22.9919 25.6728C22.9289 25.497 22.9123 25.308 22.9436 25.124C22.9749 24.9399 23.053 24.767 23.1705 24.6219C23.2773 24.4922 23.4174 24.3941 23.5758 24.338C23.7341 24.2819 23.9048 24.2699 24.0694 24.3034C25.9659 24.5376 28.3018 24.0571 30.3104 23.0162C32.4277 21.9198 33.9436 20.3251 34.4696 18.6428C34.5027 18.5455 34.5553 18.4559 34.6242 18.3796C34.6931 18.3032 34.7769 18.2417 34.8704 18.1988C34.9638 18.156 35.065 18.1326 35.1678 18.1301C35.2707 18.1276 35.3729 18.1461 35.4683 18.1845C35.5644 18.2142 35.6535 18.263 35.7303 18.3279C35.807 18.3929 35.8699 18.4727 35.9151 18.5625C35.9603 18.6524 35.9868 18.7504 35.9932 18.8508C35.9996 18.9512 35.9856 19.0518 35.9521 19.1466C35.364 21.2606 33.6628 23.1893 31.1615 24.5786C29.1541 25.6928 26.8192 26.3175 24.7374 26.3175ZM23.8863 24.6153C23.7985 24.6139 23.7115 24.6324 23.632 24.6695C23.5524 24.7066 23.4823 24.7613 23.4269 24.8294C23.3463 24.9288 23.2925 25.0472 23.2708 25.1733C23.249 25.2994 23.26 25.429 23.3026 25.5496C23.3459 25.6577 23.4189 25.7514 23.5132 25.82C23.6074 25.8885 23.719 25.929 23.8352 25.9369C28.2741 26.3808 34.4074 23.4623 35.6325 19.049V19.039C35.6533 18.9851 35.6625 18.9274 35.6595 18.8698C35.6565 18.8121 35.6413 18.7557 35.6151 18.7043C35.5888 18.6529 35.5519 18.6076 35.5069 18.5713C35.462 18.5351 35.4098 18.5088 35.354 18.4941C35.3002 18.4702 35.2421 18.4577 35.1833 18.4575C35.1244 18.4573 35.0662 18.4694 35.0123 18.493C34.9584 18.5166 34.91 18.5512 34.8703 18.5946C34.8305 18.638 34.8002 18.6892 34.7814 18.7449C34.2265 20.5304 32.6874 22.1528 30.4602 23.3069C28.395 24.3778 25.9859 24.8716 24.0161 24.6275C23.9733 24.6198 23.9298 24.6157 23.8863 24.6153Z" fill="#E2B306"/>
<path d="M34.8105 18.6895C35.1434 17.5376 36.5861 16.2481 37.3484 16.3591C38.619 16.7597 36.7447 18.5863 35.6228 18.9514C35.1934 19.0868 34.7373 19.2554 34.8105 18.6895Z" fill="#E2B306"/>
<path opacity="0.5" d="M11.4053 33.1214C16.435 32.2319 20.1863 29.6677 19.7842 27.3943C19.3821 25.1209 14.9789 23.9991 9.94923 24.8887C4.9196 25.7782 1.16824 28.3424 1.57034 30.6158C1.97243 32.8892 6.37571 34.011 11.4053 33.1214Z" fill="#F9C710"/>
<path d="M9.22931 33.5492C7.57918 33.6602 6.01893 33.5492 4.71614 33.2163C2.79968 32.7158 1.62561 31.817 1.42808 30.654C1.23055 29.491 2.00845 28.2349 3.63861 27.1185C5.23881 26.0188 7.47487 25.1787 9.91844 24.747C12.3764 24.3143 14.7601 24.3398 16.6299 24.8192C18.5464 25.3119 19.7205 26.2141 19.918 27.3715C20.1155 28.5289 19.3376 29.7907 17.7075 30.9081C16.1073 32.0079 13.8712 32.8468 11.4276 33.2785C10.6819 33.4083 9.94951 33.5015 9.22931 33.5492ZM9.9817 25.0289C7.56919 25.4595 5.37641 26.2807 3.80396 27.3482C2.27589 28.398 1.52129 29.5476 1.71105 30.5908C1.90081 31.6339 2.99387 32.4662 4.78716 32.9211C6.62705 33.3883 8.9641 33.4161 11.3777 32.9866C13.7913 32.5572 15.983 31.7349 17.5554 30.6673C19.0846 29.6175 19.8381 28.4679 19.6495 27.4248C19.2644 25.2342 14.9143 24.1633 9.9817 25.0289Z" fill="#E2B306"/>
<path d="M6.12312 30.075C6.09232 30.0765 6.06186 30.068 6.03627 30.0508C6.01067 30.0336 5.99132 30.0086 5.98107 29.9796C5.97367 29.9622 5.96982 29.9436 5.96973 29.9248C5.96964 29.906 5.97333 29.8873 5.98057 29.87C5.98781 29.8526 5.99846 29.8368 6.01189 29.8236C6.02531 29.8104 6.04125 29.8001 6.05875 29.7931C6.1331 29.7732 13.2075 27.1087 19.7081 26.939C19.7455 26.94 19.7811 26.9551 19.8078 26.9812C19.8346 27.0074 19.8505 27.0426 19.8524 27.0799C19.8535 27.0989 19.8506 27.1179 19.844 27.1357C19.8373 27.1536 19.8271 27.1698 19.8138 27.1835C19.8006 27.1972 19.7846 27.2079 19.767 27.2151C19.7494 27.2223 19.7305 27.2258 19.7115 27.2253C13.2685 27.3895 6.24075 30.0373 6.1664 30.0528C6.16153 30.0597 6.15504 30.0654 6.1475 30.0693C6.13996 30.0731 6.13159 30.0751 6.12312 30.075Z" fill="#E2B306"/>
<path opacity="0.5" d="M17.8848 30.0851C19.1133 28.1304 16.6036 24.3425 12.2791 21.6245C7.95463 18.9065 3.45302 18.2877 2.22448 20.2424C0.995932 22.197 3.50567 25.985 7.83014 28.703C12.1546 31.421 16.6562 32.0398 17.8848 30.0851Z" fill="#F9C710"/>
<path d="M15.5368 31.3564C15.0218 31.383 14.5054 31.3614 13.9944 31.2921C12.0779 31.0258 9.85071 30.1469 7.74449 28.823C5.63827 27.4991 3.88826 25.8812 2.8185 24.2632C1.72766 22.6175 1.4691 21.156 2.09608 20.1506C2.72307 19.1452 4.1446 18.7502 6.10656 19.0132C8.02302 19.2795 10.2502 20.1584 12.3564 21.4823C14.4649 22.8062 16.2127 24.4252 17.2824 26.0432C18.371 27.69 18.6318 29.1503 18.0048 30.1546C17.5698 30.8771 16.7087 31.2799 15.5368 31.3564ZM4.58404 19.2495C3.51873 19.3195 2.74415 19.6868 2.34799 20.3149C1.1606 22.2014 3.64967 25.9122 7.90983 28.5866C9.98499 29.8972 12.1656 30.7494 14.0365 31.0036C15.8764 31.2588 17.1947 30.9015 17.7685 30.0048C18.9559 28.1183 16.4679 24.4086 12.2077 21.7331C10.1326 20.4225 7.95089 19.5714 6.08104 19.3172C5.5861 19.2392 5.08401 19.2165 4.58404 19.2495Z" fill="#E2B306"/>
<path d="M17.9038 30.2224C17.8836 30.2245 17.8632 30.2221 17.844 30.2154C17.8248 30.2087 17.8073 30.1978 17.7928 30.1836C12.8347 25.1288 6.21527 22.3224 6.14092 22.2969C6.12358 22.2892 6.10793 22.2781 6.09486 22.2643C6.0818 22.2505 6.07157 22.2343 6.06477 22.2166C6.05797 22.1989 6.05473 22.18 6.05523 22.161C6.05573 22.142 6.05996 22.1234 6.06768 22.106C6.0754 22.0887 6.08647 22.073 6.10024 22.0599C6.11401 22.0469 6.13022 22.0367 6.14795 22.0299C6.16567 22.0231 6.18456 22.0198 6.20354 22.0203C6.22252 22.0208 6.24121 22.025 6.25855 22.0328C6.32069 22.0594 13.0022 24.8914 18.0092 29.9894C18.0344 30.0187 18.0482 30.0561 18.0482 30.0948C18.0482 30.1335 18.0344 30.1708 18.0092 30.2002C17.9626 30.2035 17.9293 30.2202 17.9038 30.2224Z" fill="#E2B306"/>
<path d="M27.9512 32.1444C28.0999 38.3754 22.2772 45.3421 15.6956 43.7763C15.455 43.7205 15.2179 43.6509 14.9854 43.5677C14.0751 43.2766 13.2412 42.7864 12.544 42.1328C12.0517 41.6786 11.6414 41.1429 11.3311 40.5493C9.80746 37.6574 10.3479 33.8533 12.0491 31.1378C12.6039 30.2756 13.859 28.2116 14.8378 26.5636C15.5202 25.4251 16.0784 24.4863 16.1605 24.3087L25.7551 22.7551C25.8738 22.8461 26.1934 23.6529 26.5418 24.7892C27.2887 27.0563 28.172 30.613 27.9512 32.1444Z" fill="#F9C710"/>
<path d="M27.9534 32.3831C27.9534 38.5575 22.1829 45.3356 15.6978 43.7886C19.8769 43.8375 24.1726 40.6704 25.6174 35.9097C27.0722 31.1191 25.148 26.02 25.148 26.02L26.5618 24.7838C27.2465 26.9688 28.0876 30.3157 27.9711 31.9403C27.9611 32.0979 27.9633 32.2333 27.9534 32.3831Z" fill="#F8A01F"/>
<path d="M12.5507 42.1483C12.0583 41.6942 11.6479 41.1585 11.3378 40.5647C9.81414 37.6728 10.3535 33.8677 12.0557 31.1533C12.6106 30.29 13.8657 28.2259 14.8444 26.578L16.56 26.9265C16.56 26.9265 13.5638 30.4353 12.0735 34.7011C10.622 38.8392 12.4519 41.9785 12.5507 42.1483Z" fill="#FFD95F"/>
<path d="M27.532 28.1949C19.2014 30.5797 14.1245 27.7821 14.1245 27.7821C15.3796 25.7025 16.1786 24.2921 16.1786 24.2921L23.8555 23.0403L25.7853 22.7285C26.1503 23.5315 26.4679 24.3552 26.7363 25.1954C27.0049 26.0643 27.2934 27.0886 27.532 28.1949Z" fill="#E2B306"/>
<path d="M18.6473 44.0662C17.4015 44.229 16.135 44.1072 14.9431 43.7099C13.3252 43.1828 11.9624 42.0598 11.2078 40.6128C9.76522 37.8918 10.0604 34.0588 11.9203 31.0504C12.8746 29.5567 15.8153 24.6441 16.0317 24.2202C16.0423 24.1992 16.0581 24.1813 16.0775 24.1681C16.0969 24.1549 16.1193 24.1469 16.1427 24.1447L25.7372 22.5911C25.7697 22.5875 25.8025 22.5935 25.8316 22.6086C25.8606 22.6236 25.8845 22.6468 25.9004 22.6755C26.848 25.1168 27.9511 28.3805 28.1009 32.1235C28.2119 35.8099 26.1733 39.8604 23.0273 42.2063C21.648 43.2416 20.1487 43.8653 18.6473 44.0662ZM16.257 24.4332C15.8675 25.1523 13.0866 29.7865 12.17 31.2135C10.6585 33.646 9.86065 37.4545 11.4642 40.484C12.1788 41.8601 13.4894 42.9254 15.0286 43.4381C17.6475 44.3025 20.4173 43.7965 22.8464 41.9855C25.9248 39.6939 27.9156 35.7411 27.8157 32.1435C27.6792 28.5059 26.6161 25.3099 25.6884 22.8996L16.257 24.4332Z" fill="#E2B306"/>
<path d="M20.0624 41.7045C20.1146 41.8643 19.9448 42.0685 19.6696 42.1662C19.3944 42.2638 19.128 42.2083 19.0615 42.0496C18.9949 41.891 19.1802 41.6857 19.4554 41.588C19.7306 41.4904 20.0114 41.5469 20.0624 41.7045Z" fill="#F4B503"/>
<path d="M17.9571 42.2972C18.2134 42.1607 18.4853 42.1674 18.563 42.3138C18.6407 42.4603 18.4975 42.69 18.2423 42.8276C17.9871 42.9652 17.7141 42.9575 17.6364 42.811C17.5587 42.6645 17.7074 42.4348 17.9571 42.2972Z" fill="#F4B503"/>
<path d="M19.4354 42.58C19.4965 42.691 19.3966 42.8586 19.198 42.9607C18.9993 43.0628 18.8162 43.0572 18.7541 42.944C18.6919 42.8308 18.7929 42.6655 18.9916 42.5634C19.1902 42.4613 19.3899 42.4646 19.4354 42.58Z" fill="#F4B503"/>
<path d="M19.7393 43.7232C19.3798 43.8195 19.0148 43.8936 18.6462 43.9452C17.656 44.0726 16.6508 44.0162 15.6811 43.7787C15.622 43.8135 15.5596 43.8422 15.4947 43.8642C14.4733 44.3797 13.3925 44.7681 12.2765 45.0205C11.1723 45.2746 10.501 45.258 10.501 45.258C11.7427 44.6676 12.6416 43.2117 12.9079 42.7056C12.9679 42.5947 13.0045 42.5259 13.0045 42.5259C12.0601 41.797 11.3446 40.8126 10.9426 39.6895C10.9859 39.7472 13.0222 43.2982 19.7393 43.7232Z" fill="#E2B306"/>
<path d="M12.9134 42.7035C12.9134 42.7335 13.0466 44.1572 12.2809 45.0172C11.1767 45.2714 10.5054 45.2547 10.5054 45.2547C11.7505 44.6821 12.6471 43.2128 12.9134 42.7035Z" fill="#F9C710"/>
<path d="M11.3531 45.3423C11.069 45.3803 10.783 45.4033 10.4965 45.4111C10.4635 45.4092 10.4321 45.3963 10.4074 45.3745C10.3826 45.3526 10.3659 45.3231 10.3599 45.2907C10.3539 45.2582 10.3589 45.2247 10.3742 45.1954C10.3895 45.1661 10.4142 45.1429 10.4443 45.1293C11.7005 44.5367 12.6016 42.9909 12.8335 42.5648C11.9169 41.8379 11.2888 40.8891 10.8638 39.7472C10.8382 39.6751 10.8283 39.5863 10.9004 39.5608C10.9172 39.5523 10.9355 39.5473 10.9542 39.546C10.973 39.5447 10.9918 39.5472 11.0096 39.5533C11.0274 39.5594 11.0438 39.569 11.0578 39.5815C11.0718 39.594 11.0832 39.6093 11.0913 39.6262C11.1123 39.6695 13.1553 43.1596 19.747 43.5846C19.7799 43.5862 19.8113 43.5987 19.8362 43.6202C19.8611 43.6418 19.8782 43.671 19.8846 43.7033C19.8946 43.7777 19.808 43.7266 19.7348 43.7521C18.3898 44.1283 17.0604 44.2615 15.7132 43.9408L15.57 44.0052C13.7512 44.9007 12.2476 45.2225 11.3531 45.3423ZM11.119 45.0694C12.6329 44.8714 14.1015 44.4142 15.4602 43.7177C15.4976 43.6898 15.5403 43.6695 15.5856 43.6581C15.6309 43.6467 15.678 43.6443 15.7243 43.6512C16.7223 43.9014 17.7604 43.9489 18.7771 43.791C14.8188 43.3471 12.6559 41.8002 11.6206 40.7548C12.0068 41.3971 12.5096 41.9617 13.1032 42.4194C13.1269 42.4339 13.1449 42.4562 13.1541 42.4825C13.1632 42.5089 13.1628 42.5375 13.1531 42.5636C13.1526 42.5752 13.1488 42.5864 13.142 42.5958C13.0588 42.7778 12.2986 44.2448 11.119 45.0694Z" fill="#E2B306"/>
<path d="M27.9514 32.1444C27.9511 32.8473 27.8977 33.5491 27.7916 34.244C27.6972 34.8089 27.5585 35.3655 27.3765 35.9085C27.3765 35.9085 18.8074 35.5945 13.2455 31.9968C12.8329 31.7329 12.435 31.4465 12.0537 31.139C12.2912 30.7584 12.5153 30.3944 12.7406 30.0293C13.145 30.2496 13.5614 30.4471 13.9879 30.6208C16.1718 31.5296 21.0923 33.0488 27.9514 32.1444Z" fill="#E2B306"/>
<path d="M14.0024 30.6209C14.0024 30.6209 13.544 31.3977 13.2455 31.9958C12.8329 31.7319 12.435 31.4455 12.0537 31.138C12.2912 30.7574 12.5153 30.3934 12.7406 30.0283C13.1481 30.2526 13.5696 30.4505 14.0024 30.6209Z" fill="#F9C710"/>
<path d="M27.3722 36.1051H27.3422C27.2512 36.1051 17.3737 35.6435 11.9628 31.2524C11.9354 31.2298 11.9176 31.1977 11.9129 31.1625C11.9081 31.1273 11.9169 31.0917 11.9373 31.0626C12.1748 30.682 12.3989 30.318 12.6242 29.9529C12.6329 29.9363 12.6451 29.9218 12.6601 29.9105C12.675 29.8992 12.6922 29.8913 12.7106 29.8873C12.7289 29.8834 12.7478 29.8836 12.7661 29.8878C12.7844 29.8921 12.8015 29.9003 12.8162 29.9119C12.8661 29.9507 18.6277 33.2177 27.9337 32.0081C27.9534 32.0045 27.9736 32.0054 27.9928 32.0108C28.012 32.0162 28.0298 32.0259 28.0447 32.0392C28.0623 32.0512 28.0761 32.0681 28.0843 32.0878C28.0926 32.1075 28.095 32.1291 28.0913 32.1501C28.0915 32.8597 28.038 33.5682 27.9315 34.2697C27.8291 34.8579 27.678 35.4365 27.4798 35.9997C27.4785 36.0276 27.4666 36.054 27.4467 36.0735C27.4267 36.093 27.4001 36.1043 27.3722 36.1051ZM12.248 31.1115C17.2894 35.1275 26.1571 35.7511 27.2568 35.8011C27.4231 35.2803 27.5598 34.7505 27.6663 34.2142C27.7698 33.5803 27.8214 32.9389 27.8205 32.2966C19.2536 33.363 13.6917 30.6765 12.8106 30.217L12.248 31.1115Z" fill="#E2B306"/>
<path d="M23.9353 29.0994C17.7776 29.9194 14.0856 27.9386 14.0512 27.9131C14.023 27.8904 13.999 27.8629 13.9802 27.8321C13.974 27.8136 13.9721 27.794 13.9748 27.7748C13.9775 27.7555 13.9847 27.7371 13.9957 27.7211C15.2375 25.6593 16.0353 24.2477 16.0509 24.2455C16.0611 24.2273 16.0749 24.2114 16.0915 24.1988C16.1081 24.1862 16.1272 24.1772 16.1474 24.1723L25.7419 22.6187C25.7782 22.6155 25.8144 22.6247 25.8447 22.6449C25.8749 22.6651 25.8974 22.695 25.9084 22.7296C25.914 22.7664 25.9057 22.8038 25.8852 22.8348C25.8647 22.8658 25.8334 22.888 25.7974 22.8972L16.265 24.4475C16.1052 24.7271 15.3773 25.9922 14.3219 27.7411C15.1798 28.1428 20.0525 30.2091 27.4908 28.0795C27.5641 28.054 27.5119 28.1217 27.5374 28.1905C27.563 28.2593 27.6484 28.327 27.5741 28.3525C26.3793 28.6827 25.1636 28.9322 23.9353 29.0994Z" fill="#E2B306"/>
<path d="M7.27639 35.5835C6.95347 36.4613 5.4709 37.6298 4.70853 37.4889C2.97073 36.8707 7.87785 33.0489 7.27639 35.5835Z" fill="#E2B306"/>
<path d="M12.4586 32.1311C12.5585 32.1933 12.5374 32.3786 12.4087 32.5473C12.2799 32.7159 12.1213 32.7825 12.0214 32.7204C11.9215 32.6582 11.9437 32.4729 12.0724 32.3042C12.2012 32.1356 12.3576 32.0501 12.4586 32.1311Z" fill="#F9C710"/>
<path d="M11.4932 33.2864C11.5842 33.1088 11.7418 33.0089 11.8461 33.0644C11.9504 33.1199 11.9571 33.3052 11.8672 33.4817C11.7773 33.6581 11.6186 33.7602 11.5154 33.7036C11.4122 33.647 11.3978 33.4639 11.4932 33.2864Z" fill="#F9C710"/>
<path d="M12.4354 32.8622C12.5153 32.8966 12.5187 33.0331 12.4454 33.1641C12.3722 33.295 12.2601 33.3716 12.1924 33.3194C12.1125 33.285 12.1092 33.1485 12.1824 33.0176C12.2557 32.8867 12.37 32.8267 12.4354 32.8622Z" fill="#F9C710"/>
<path d="M25.8494 39.0245C25.1664 40.0598 24.3344 40.9886 23.3803 41.781C23.3803 41.781 16.1018 40.7945 11.6385 36.6709C11.2419 36.3116 10.8711 35.9248 10.5288 35.5134L10.8484 33.9232C10.8484 33.9232 11.1547 34.3993 11.9692 35.0485C13.687 36.4434 17.6864 38.6717 25.8505 39.0245H25.8494Z" fill="#E2B306"/>
<path d="M11.968 35.0461C11.8053 35.575 11.6938 36.1183 11.6351 36.6685C11.2385 36.3092 10.8677 35.9225 10.5254 35.5111L10.845 33.9209C10.845 33.9209 11.1513 34.3803 11.968 35.0461Z" fill="#F9C710"/>
<path d="M23.3982 41.9156C23.3872 41.839 23.3683 41.9156 23.3528 41.9211C23.2595 41.9034 14.6316 40.6871 10.4191 35.6047C10.408 35.5932 10.3998 35.5793 10.3949 35.5641C10.3901 35.5489 10.3889 35.5328 10.3914 35.517V35.4871L10.7099 33.8969C10.715 33.8699 10.7284 33.8452 10.7483 33.8262C10.7683 33.8073 10.7936 33.7951 10.8208 33.7914C10.8459 33.7819 10.8733 33.7809 10.899 33.7885C10.9247 33.7961 10.9471 33.812 10.9629 33.8336C10.9629 33.848 10.9795 33.8469 10.9817 33.8613C10.984 33.8758 11.7585 35.0021 13.948 36.1973C15.991 37.2903 19.7063 38.6453 25.8729 38.9161C25.8958 38.9197 25.9176 38.9283 25.9368 38.9414C25.956 38.9544 25.9721 38.9715 25.9839 38.9915C26.0172 39.0048 25.8906 39.0736 25.8518 39.1247C25.1884 40.1251 24.3789 41.0205 23.4504 41.7813C23.4149 41.7558 23.4127 41.9134 23.3982 41.9156ZM10.6732 35.4649C14.6571 40.1978 22.5382 41.4994 23.3239 41.6215C24.1806 40.901 24.9388 40.0708 25.5788 39.1524C19.501 38.8561 15.799 37.4978 13.7715 36.4026C12.1214 35.5148 11.278 34.657 10.9207 34.2497L10.6732 35.4649Z" fill="#E2B306"/>
<path d="M16.9305 46.5076C17.2246 46.1747 17.4931 45.7818 17.7073 45.4889C18.0498 45.0344 18.3276 44.5348 18.5329 44.0041C18.8286 43.2232 18.9676 42.3918 18.9419 41.5572C18.9162 40.7227 18.7263 39.9014 18.3831 39.1402C17.7173 38.0549 16.2924 39.2201 17.0515 40.1811C18.0191 42.3395 17.0159 44.6266 15.4757 46.2002C15.4006 46.2755 15.3476 46.3699 15.3221 46.4731C15.2967 46.5763 15.2999 46.6845 15.3314 46.7861C15.6466 47.7771 17.7594 49.354 18.2821 48.6615C18.6494 48.2065 17.8393 47.0979 16.9305 46.5076Z" fill="#E2B306"/>
<path d="M16.0829 47.1611C16.6078 47.8159 17.6709 48.6037 18.2945 48.6748C18.0038 49.0199 17.126 48.7536 16.3337 48.0877C15.5724 47.4563 15.1607 46.6851 15.3782 46.3233C15.4106 46.2408 15.4619 46.1671 15.528 46.108C15.9603 45.6971 16.3395 45.2337 16.6566 44.7287C16.9636 44.2423 17.1865 43.7077 17.3158 43.1473C17.5391 42.1599 17.4559 41.1278 17.0772 40.1888C17.116 40.2377 18.1392 41.8223 17.8251 43.2161C17.5433 44.4634 16.6333 45.5964 16.0862 46.138C16.0019 46.209 15.932 46.2734 15.8754 46.3311C15.6812 46.4842 15.8088 46.8094 16.0829 47.1611Z" fill="#F9C710"/>
<path d="M15.2297 28.105C12.724 29.1038 10.5457 30.8693 8.91994 33.0122C8.2641 33.7823 7.88236 34.7877 7.27535 35.5834C6.78708 35.9063 6.07798 35.3614 6.36761 34.8066C7.19546 33.0025 8.3382 31.3603 9.74223 29.9572C11.1504 28.5711 12.9604 27.4647 14.7947 26.6591C15.839 26.1875 16.3161 27.7222 15.2297 28.105Z" fill="#E2B306"/>
<path d="M7.5037 35.4768C7.47585 35.4804 7.4477 35.4732 7.42491 35.4568C7.35943 35.4202 7.27953 35.4247 7.31394 35.3592C7.73869 34.5045 8.2358 33.6877 8.79983 32.9178C10.5154 30.6551 12.7315 28.9495 15.1795 27.9708C15.1977 27.9621 15.2174 27.9573 15.2375 27.9565C15.2576 27.9558 15.2776 27.9591 15.2964 27.9664C15.3151 27.9737 15.3322 27.9847 15.3465 27.9988C15.3608 28.0129 15.3721 28.0298 15.3797 28.0484C15.3873 28.0671 15.391 28.087 15.3905 28.1071C15.3901 28.1272 15.3856 28.147 15.3772 28.1653C15.3689 28.1836 15.3569 28.2 15.342 28.2135C15.3271 28.227 15.3095 28.2373 15.2905 28.2437C12.8847 29.2014 10.7274 30.8848 9.03509 33.0987C8.49819 33.8294 8.02272 34.6033 7.61356 35.4124C7.59358 35.4657 7.54808 35.4713 7.5037 35.4768Z" fill="#E2B306"/>
<path d="M14.2797 26.8967C14.2242 26.9345 10.4567 29.2881 8.81769 31.6762C7.81896 33.1444 7.20751 34.1664 6.87459 34.7424C6.66708 35.1185 6.57165 35.3139 6.57165 35.3139C6.51216 35.3361 6.45494 35.364 6.40075 35.3971C5.94577 35.619 4.71843 36.3192 4.70956 37.5055C4.61106 37.4918 4.51961 37.4466 4.44878 37.3768C4.39601 37.3168 4.36442 37.2412 4.35889 37.1615C4.30562 36.7587 4.6918 36.1006 5.32544 35.5302C5.62271 35.2602 5.96238 35.0409 6.33084 34.8811C6.34416 34.8633 6.33972 34.8345 6.35303 34.8167C7.18009 33.0124 8.32251 31.3702 9.72654 29.9673C11.0149 28.6978 12.6218 27.6635 14.2797 26.8967Z" fill="#F9C710"/>
<path d="M6.38851 34.9433C6.35855 34.9433 6.32859 34.9522 6.31194 34.9433C6.27828 34.9272 6.25214 34.8987 6.23891 34.8637C6.22569 34.8288 6.22641 34.7902 6.24092 34.7558C7.0635 32.9325 8.21627 31.277 9.64106 29.8731C11.3056 28.2251 13.3308 27.1654 14.7357 26.5539C14.7722 26.5425 14.8115 26.5443 14.8467 26.5589C14.882 26.5735 14.9111 26.6 14.9288 26.6338C14.9398 26.6703 14.9378 26.7094 14.9232 26.7446C14.9087 26.7798 14.8824 26.8089 14.8489 26.8269C13.4562 27.4217 11.4576 28.4771 9.83637 30.0895C8.4473 31.4763 7.31956 33.1021 6.50725 34.8889C6.47629 34.9219 6.43367 34.9414 6.38851 34.9433Z" fill="#E2B306"/>
<path d="M4.98471 37.6343C4.70174 37.672 4.48091 37.6099 4.33997 37.4623C4.2674 37.383 4.22192 37.2828 4.21014 37.176C4.1491 36.7132 4.55526 36.0074 5.2344 35.416C5.54293 35.1338 5.89765 34.9067 6.28307 34.7446C6.31965 34.7335 6.35895 34.7356 6.3942 34.7503C6.42944 34.7651 6.45843 34.7917 6.47616 34.8256C6.4908 34.8618 6.4905 34.9023 6.47532 34.9383C6.46013 34.9743 6.43131 35.0028 6.39515 35.0176C6.04426 35.1722 5.71906 35.3795 5.43081 35.6324C4.76499 36.2216 4.46648 36.8231 4.50865 37.136C4.50993 37.1604 4.51609 37.1842 4.52677 37.2061C4.53744 37.2281 4.55241 37.2476 4.57079 37.2636C4.78386 37.4933 5.54511 37.2858 6.30637 36.6233C6.72225 36.238 7.07699 35.7916 7.35837 35.2994C7.36594 35.2822 7.37685 35.2667 7.39047 35.2537C7.40409 35.2407 7.42016 35.2306 7.43773 35.2239C7.4553 35.2172 7.47402 35.214 7.49282 35.2146C7.51162 35.2152 7.53012 35.2195 7.54724 35.2273C7.56436 35.2351 7.57976 35.2462 7.59255 35.26C7.60534 35.2738 7.61527 35.29 7.62175 35.3076C7.62824 35.3253 7.63115 35.344 7.63032 35.3628C7.6295 35.3816 7.62495 35.4001 7.61694 35.4171C7.34699 35.9672 6.96968 36.4577 6.50723 36.8597C5.95571 37.2925 5.41639 37.5766 4.98471 37.6343Z" fill="#E2B306"/>
<path d="M20.4331 7.10387C20.6162 6.51017 20.8237 5.95199 21.0623 5.38382C21.3009 4.81565 21.5361 4.27411 21.818 3.73147C22.0865 3.18814 22.3851 2.66021 22.7124 2.15014C23.0384 1.63912 23.3922 1.14641 23.7722 0.674226C23.7894 0.652599 23.8109 0.634742 23.8353 0.621764C23.8598 0.608785 23.8866 0.600961 23.9142 0.598776C23.9417 0.596591 23.9695 0.600092 23.9956 0.609062C24.0218 0.618032 24.0458 0.63228 24.0663 0.650923C24.1072 0.684454 24.1341 0.732081 24.1417 0.784444C24.1493 0.836806 24.137 0.890117 24.1073 0.933898C23.7602 1.4069 23.4468 1.90381 23.1696 2.4209C22.8933 2.93692 22.6292 3.46958 22.3928 4.00889C22.1565 4.54821 21.9489 5.09086 21.7614 5.65237C21.5657 6.20248 21.398 6.76211 21.2587 7.32914V7.34467C21.2291 7.44695 21.1612 7.53392 21.0692 7.58758C20.9773 7.64124 20.8682 7.6575 20.7645 7.63298C20.6609 7.60846 20.5707 7.54505 20.5125 7.45586C20.4543 7.36667 20.4326 7.25853 20.4519 7.1538C20.4309 7.11829 20.4309 7.11829 20.4331 7.10387Z" fill="#E2B306"/>
<path d="M11.3211 8.61634C11.1292 8.08035 10.9061 7.53327 10.6675 6.9884C10.4289 6.44353 10.1615 5.93196 9.88296 5.40818C9.60443 4.8844 9.29371 4.3928 8.97189 3.90453C8.64434 3.41708 8.28396 2.95252 7.89326 2.51406C7.85944 2.47172 7.84303 2.41809 7.84736 2.36408C7.85169 2.31007 7.87644 2.25973 7.91656 2.22332C7.9583 2.19144 8.0097 2.17482 8.0622 2.17623C8.1147 2.17764 8.16513 2.19701 8.20509 2.23109C8.63216 2.6639 9.03204 3.12272 9.40246 3.60491C9.77084 4.08309 10.1146 4.57977 10.4323 5.09302C10.7585 5.61125 11.0548 6.13282 11.3389 6.67213C11.623 7.21145 11.8749 7.7541 12.1157 8.32893C12.1598 8.42987 12.1621 8.54423 12.1219 8.64682C12.0817 8.74942 12.0025 8.83186 11.9015 8.87601C11.8006 8.92016 11.6862 8.92239 11.5836 8.88223C11.481 8.84206 11.3986 8.76279 11.3544 8.66184C11.3234 8.65074 11.3234 8.65074 11.3189 8.62078L11.3211 8.61634Z" fill="#E2B306"/>
<path d="M20.8579 7.81396C20.8133 7.81389 20.769 7.8083 20.7258 7.79731C20.5917 7.76467 20.4742 7.68417 20.3953 7.57096C20.3165 7.45774 20.2816 7.31961 20.2975 7.18253C20.2822 7.14962 20.2779 7.11265 20.2853 7.07711C20.2849 7.0712 20.2849 7.06527 20.2853 7.05936C20.4693 6.47077 20.683 5.89188 20.9256 5.32488C21.1475 4.77003 21.4038 4.20852 21.6857 3.66032C21.9574 3.11384 22.2593 2.58295 22.5901 2.07011C22.9188 1.55452 23.2756 1.05736 23.6588 0.580889C23.689 0.543431 23.7265 0.512509 23.7691 0.489998C23.8116 0.467488 23.8583 0.453861 23.9062 0.449943C23.9744 0.444979 24.0425 0.459164 24.103 0.490894C24.1635 0.522625 24.2139 0.570637 24.2485 0.629506C24.2831 0.688374 24.3006 0.755754 24.2989 0.824033C24.2973 0.892312 24.2766 0.958768 24.2391 1.01589C23.8954 1.48403 23.5843 1.97532 23.3081 2.48625C23.014 3.03556 22.7532 3.566 22.5391 4.06315C22.3249 4.5603 22.1207 5.08741 21.9121 5.69553C21.7182 6.24148 21.5527 6.79707 21.4161 7.36009V7.36785C21.3811 7.51553 21.2894 7.64351 21.1608 7.72407C21.0707 7.78276 20.9654 7.81399 20.8579 7.81396ZM20.5927 7.09487C20.6048 7.12482 20.6071 7.15783 20.5993 7.18919C20.5849 7.25752 20.5975 7.32878 20.6346 7.38797C20.6716 7.44717 20.7302 7.48968 20.7979 7.50657C20.8311 7.51464 20.8655 7.51585 20.899 7.51012C20.9326 7.5044 20.9647 7.49186 20.9933 7.47328C21.0542 7.43644 21.0981 7.377 21.1153 7.30793V7.30349C21.2548 6.72695 21.4241 6.15802 21.6225 5.59898C21.8333 4.9842 22.0408 4.44267 22.2572 3.94441C22.4736 3.44615 22.7388 2.90239 23.034 2.34532C23.3169 1.82412 23.635 1.32285 23.9861 0.844999C23.9932 0.833319 23.996 0.819586 23.9942 0.806067C23.9924 0.792549 23.986 0.780054 23.9761 0.770648C23.9624 0.756654 23.9436 0.748675 23.924 0.748454C23.909 0.750722 23.8955 0.758671 23.8863 0.770648C23.5107 1.23755 23.1609 1.72471 22.8387 2.22991C22.5135 2.73508 22.2171 3.25822 21.9509 3.79682C21.6724 4.33725 21.4205 4.88877 21.2008 5.43918C20.9611 6.00846 20.7624 6.55 20.5927 7.09487Z" fill="#E2B306"/>
<path d="M11.7418 9.05481C11.6409 9.05526 11.5417 9.02888 11.4543 8.97838C11.367 8.92788 11.2946 8.85506 11.2446 8.7674C11.2262 8.75454 11.2107 8.73807 11.1988 8.71899C11.187 8.69991 11.1792 8.67862 11.1758 8.65642C11.0005 8.16815 10.7897 7.64326 10.53 7.05068C10.3191 6.57905 10.0639 6.06526 9.7532 5.48155C9.51128 5.03212 9.23274 4.57159 8.84879 3.99011C8.52539 3.50809 8.16945 3.04871 7.78347 2.61518C7.72398 2.54295 7.6945 2.45064 7.70111 2.3573C7.70772 2.26396 7.74991 2.17672 7.81898 2.11359C7.88669 2.05844 7.97134 2.02832 8.05867 2.02832C8.14601 2.02832 8.23066 2.05844 8.29837 2.11359L8.31502 2.12691C8.74505 2.56422 9.14789 3.02747 9.52127 3.51404C9.89287 3.9961 10.2396 4.49686 10.56 5.01437C10.8696 5.50708 11.1681 6.02642 11.471 6.60236C11.7473 7.12836 12.0037 7.67322 12.2556 8.26692C12.3128 8.40427 12.3141 8.55855 12.2591 8.69683C12.2042 8.83511 12.0974 8.94645 11.9615 9.00709C11.892 9.0369 11.8174 9.0531 11.7418 9.05481ZM11.4555 8.54656C11.4722 8.56039 11.4854 8.57786 11.4943 8.59761C11.5082 8.62945 11.5282 8.65825 11.5531 8.68237C11.5781 8.70649 11.6076 8.72546 11.6399 8.73818C11.6722 8.75091 11.7067 8.75715 11.7414 8.75654C11.7761 8.75594 11.8104 8.7485 11.8422 8.73466C11.8741 8.72081 11.9029 8.70083 11.927 8.67586C11.9511 8.65088 11.9701 8.6214 11.9828 8.5891C11.9955 8.55679 12.0018 8.5223 12.0012 8.48758C12.0005 8.45286 11.9931 8.41861 11.9793 8.38677C11.7307 7.79862 11.4777 7.2593 11.2025 6.74218C10.904 6.1729 10.6088 5.66022 10.3025 5.17305C10.024 4.71808 9.68994 4.23535 9.28046 3.69604C8.91643 3.22217 8.52359 2.77115 8.10417 2.34552C8.07421 2.32555 8.03204 2.31778 8.01207 2.33665C8.00191 2.34708 7.99553 2.3606 7.99392 2.37507C7.99231 2.38954 7.99558 2.40413 8.00319 2.41654C8.39883 2.85946 8.76332 3.32925 9.09403 3.82254C9.48243 4.41291 9.75986 4.88009 10.0118 5.33729C10.328 5.92766 10.5866 6.447 10.8008 6.9275C11.066 7.52563 11.279 8.05385 11.4555 8.54656Z" fill="#E2B306"/>
<path d="M22.3849 25.747L21.8789 25.8923C15.6756 27.7222 10.6531 27.8332 8.82097 21.6189C6.98885 15.4045 10.7397 6.38592 15.71 4.91112C16.0255 4.82354 16.3466 4.75755 16.671 4.71359C16.8231 4.70138 16.9718 4.67364 17.1293 4.67586C22.1818 4.39843 28.8922 9.55857 30.5457 15.2181C32.3179 21.2682 28.3074 23.9215 22.3849 25.747Z" fill="#F9C710"/>
<path d="M22.385 25.747C22.385 25.747 25.0705 24.8038 27.9335 22.135C30.7965 19.4661 30.184 13.5092 26.0304 9.35002C21.9022 5.21526 17.1527 4.68925 17.1172 4.68038C22.1697 4.40295 28.8801 9.56309 30.5335 15.2226C32.3179 21.2683 28.3075 23.9216 22.385 25.747Z" fill="#F8A01F"/>
<path d="M22.3849 25.7471L21.8789 25.8925C15.6756 27.7224 10.6531 27.8334 8.82097 21.619C6.98885 15.4047 10.7397 6.38607 15.71 4.91127C16.0255 4.8237 16.3466 4.7577 16.671 4.71375C16.671 4.71375 13.8368 4.98008 11.2523 10.1513C8.66783 15.3225 8.91641 20.6014 10.4334 23.5932C11.9503 26.5849 16.5234 27.0222 22.3849 25.7471Z" fill="#FFD95F"/>
<path d="M21.6461 26.1155C18.176 27.1142 15.6381 27.3706 13.6762 26.9167C11.1827 26.3496 9.56027 24.624 8.68249 21.67C7.82136 18.7248 8.14872 14.9008 9.58025 11.4452C11.0118 7.98955 13.2878 5.49826 15.6681 4.79914L15.6969 4.79137C18.125 4.09448 21.392 4.95561 24.4437 7.08181C27.4732 9.20135 29.8035 12.2419 30.6735 15.2148C31.5436 18.1877 31.0975 20.507 29.3219 22.3314C27.8793 23.8084 25.5345 24.9947 21.9102 26.0556C21.8205 26.0676 21.7322 26.0877 21.6461 26.1155ZM15.7713 5.05104L15.7424 5.05992C13.4476 5.73462 11.2326 8.15378 9.84214 11.5417C8.45167 14.9297 8.10767 18.6893 8.95437 21.5768C9.78554 24.4199 11.358 26.0811 13.7339 26.6193C15.6958 27.0732 18.2726 26.7869 21.8347 25.7471C25.3969 24.7073 27.7162 23.5443 29.11 22.0939C30.8167 20.3528 31.2351 18.1045 30.3884 15.2648C29.5405 12.364 27.2479 9.39222 24.2661 7.29043C21.2954 5.21861 18.1272 4.37523 15.7713 5.05104Z" fill="#E2B306"/>
<path d="M13.5717 6.60466C13.7936 6.41601 14.06 6.36607 14.1676 6.49368C14.2753 6.6213 14.182 6.87542 13.9612 7.06296C13.7404 7.25051 13.4718 7.30044 13.3653 7.17394C13.2588 7.04743 13.3498 6.7922 13.5717 6.60466Z" fill="#F4B503"/>
<path d="M12.9792 7.59012C13.1035 7.70109 13.058 7.97408 12.8682 8.18493C12.6785 8.39577 12.4243 8.50008 12.2834 8.38356C12.1425 8.26704 12.2046 7.99961 12.3944 7.78876C12.5841 7.57792 12.8549 7.4847 12.9792 7.59012Z" fill="#F4B503"/>
<path d="M13.4908 7.66875C13.6262 7.51117 13.8126 7.44681 13.9069 7.53115C14.0013 7.61549 13.968 7.80525 13.8326 7.96283C13.6972 8.1204 13.5108 8.18477 13.4164 8.10043C13.3221 8.01609 13.3554 7.82633 13.4908 7.66875Z" fill="#F4B503"/>
<path d="M37.0653 16.2202C37.3472 16.1725 37.5702 16.2257 37.7167 16.3689C37.7914 16.4455 37.84 16.5438 37.8554 16.6496C37.9342 17.1091 37.5536 17.8304 36.8955 18.4463C36.598 18.7396 36.2518 18.9792 35.8724 19.1542C35.8364 19.1668 35.7972 19.1663 35.7615 19.1529C35.7258 19.1395 35.6959 19.1141 35.6771 19.081C35.6648 19.0586 35.6573 19.034 35.655 19.0086C35.6527 18.9832 35.6557 18.9576 35.6637 18.9334C36.0379 18.751 36.3842 18.5163 36.6924 18.2365C37.335 17.624 37.6124 17.0158 37.5591 16.7007C37.5569 16.6764 37.5498 16.6528 37.5384 16.6313C37.527 16.6098 37.5114 16.5907 37.4925 16.5753C37.2706 16.3533 36.5182 16.5886 35.7814 17.2777C35.3795 17.678 35.0408 18.1372 34.7771 18.6393C34.7619 18.6735 34.7343 18.7005 34.6999 18.715C34.6654 18.7294 34.6267 18.7301 34.5918 18.717C34.5592 18.7002 34.5336 18.6723 34.5196 18.6384C34.5056 18.6044 34.504 18.5667 34.5152 18.5317C34.7205 17.9214 35.3142 17.311 35.575 17.0536C36.1076 16.5975 36.6359 16.2923 37.0653 16.2202Z" fill="#E2B306"/>
<path d="M6.19981 2.26214C7.16859 1.88706 8.08631 1.91591 8.24056 2.3265C8.39481 2.73709 7.74342 3.37407 6.77575 3.75248C5.80809 4.13089 4.88925 4.0987 4.735 3.68811C4.58075 3.27752 5.23215 2.64277 6.19981 2.26214Z" fill="#E2B306"/>
<path d="M5.52404 4.16423C5.05019 4.16423 4.70286 4.01997 4.5941 3.73921C4.39991 3.2354 5.06573 2.54073 6.14769 2.12237C7.22966 1.70401 8.18511 1.76948 8.38597 2.27218C8.58683 2.77487 7.9088 3.47066 6.83238 3.88902C6.41635 4.05865 5.97315 4.15187 5.52404 4.16423ZM7.45826 2.15011C7.04473 2.16152 6.63659 2.24684 6.25311 2.40201C5.32984 2.75934 4.76389 3.34526 4.87375 3.63046C4.98361 3.91565 5.79814 3.96337 6.72141 3.60937C7.64469 3.25538 8.21064 2.66612 8.10078 2.38093C8.04418 2.23556 7.80338 2.15011 7.45826 2.15011Z" fill="#E2B306"/>
<path d="M27.3201 1.7943C27.4404 1.37103 26.7284 0.79775 25.7298 0.513846C24.7312 0.229942 23.8241 0.342921 23.7037 0.766192C23.5834 1.18946 24.2954 1.76274 25.294 2.04665C26.2927 2.33055 27.1998 2.21757 27.3201 1.7943Z" fill="#E2B306"/>
<path d="M26.3354 2.35771C25.9692 2.35431 25.6052 2.30092 25.2534 2.19902C24.1437 1.87721 23.4113 1.2469 23.5589 0.727554C23.6344 0.461224 23.9218 0.283671 24.3679 0.228186C24.8403 0.185185 25.3166 0.233792 25.7706 0.371338C26.8803 0.688714 27.6116 1.31792 27.464 1.83726C27.3674 2.17461 26.9335 2.35771 26.3354 2.35771ZM24.6897 0.508942C24.5948 0.508628 24.4999 0.514187 24.4056 0.525587C24.0949 0.564427 23.8863 0.669849 23.8508 0.809672C23.7664 1.10263 24.3856 1.63418 25.3378 1.90495C26.2899 2.17572 27.0955 2.04921 27.1788 1.75514C27.262 1.46107 26.6439 0.93063 25.6918 0.659862C25.3662 0.563942 25.0291 0.513162 24.6897 0.508942Z" fill="#E2B306"/>
<path d="M17.8986 48.9985C17.8342 48.9982 17.77 48.9922 17.7066 48.9807C16.8133 48.8276 15.4428 47.6657 15.1787 46.8368C15.1379 46.7063 15.1336 46.5672 15.166 46.4344C15.1985 46.3016 15.2666 46.1802 15.3629 46.0833C16.679 44.7383 17.9851 42.5211 16.7367 39.5871C16.7215 39.5468 16.7224 39.5022 16.7393 39.4627C16.7562 39.4231 16.7878 39.3916 16.8274 39.3748C16.867 39.358 16.9116 39.3572 16.9518 39.3726C16.992 39.388 17.0247 39.4183 17.043 39.4572C18.3635 42.5589 16.9875 44.8948 15.6004 46.3163C15.5463 46.3701 15.5081 46.4376 15.4897 46.5115C15.4713 46.5854 15.4735 46.663 15.4961 46.7358C15.718 47.446 16.9931 48.5213 17.7621 48.6523C17.953 48.6855 18.085 48.6523 18.1549 48.5613C18.1812 48.5225 18.1991 48.4787 18.2073 48.4326C18.2155 48.3866 18.2139 48.3393 18.2026 48.2938C18.1261 47.8244 17.5168 47.0854 16.8432 46.647C16.8231 46.634 16.806 46.6168 16.7932 46.5966C16.7803 46.5764 16.7721 46.5536 16.7689 46.5299C16.7657 46.5061 16.7678 46.482 16.7748 46.4591C16.7819 46.4362 16.7939 46.4151 16.81 46.3973C17.0319 46.1477 17.2394 45.8591 17.4236 45.6039C17.4769 45.5284 17.529 45.4574 17.5779 45.3897C17.9107 44.948 18.181 44.4626 18.3813 43.9471C18.671 43.1872 18.8075 42.3775 18.7827 41.5646C18.7579 40.7517 18.5725 39.9517 18.237 39.2109C18.2275 39.1911 18.222 39.1696 18.2209 39.1477C18.2198 39.1257 18.223 39.1038 18.2304 39.0832C18.2379 39.0625 18.2494 39.0435 18.2642 39.0273C18.2791 39.0112 18.297 38.9981 18.3169 38.9889C18.3571 38.9704 18.403 38.9685 18.4446 38.9837C18.4862 38.9988 18.5201 39.0299 18.5389 39.0699C18.8931 39.8509 19.0891 40.6943 19.1155 41.5514C19.142 42.4085 18.9984 43.2623 18.6931 44.0636C18.4821 44.6083 18.1972 45.1213 17.8464 45.5884L17.6933 45.8003C17.539 46.0145 17.367 46.2531 17.1817 46.4761C17.8775 46.9777 18.4446 47.7123 18.5311 48.2417C18.5506 48.3319 18.5507 48.4252 18.5316 48.5154C18.5125 48.6057 18.4745 48.6909 18.4201 48.7655C18.3586 48.8436 18.2789 48.9056 18.1881 48.9462C18.0972 48.9868 17.9979 49.0048 17.8986 48.9985Z" fill="#E2B306"/>
<path d="M55.7179 37C54.7841 37 54.0591 36.742 53.543 36.2259C53.0516 35.7098 52.8058 34.9972 52.8058 34.0879V13.8507C52.8058 12.8923 53.0516 12.1673 53.543 11.6758C54.0345 11.1844 54.7472 10.9386 55.681 10.9386C56.5903 10.9386 57.2907 11.1844 57.7822 11.6758C58.2737 12.1673 58.5194 12.8923 58.5194 13.8507V32.1711H68.3984C69.1848 32.1711 69.7869 32.38 70.2046 32.7977C70.647 33.2155 70.8682 33.8053 70.8682 34.5671C70.8682 35.3535 70.647 35.9556 70.2046 36.3733C69.7869 36.7911 69.1848 37 68.3984 37H55.7179ZM79.5765 37.4055C78.2495 37.4055 77.0576 37.1474 76.0009 36.6314C74.9442 36.1153 74.1209 35.4149 73.5311 34.5302C72.9414 33.6456 72.6465 32.6503 72.6465 31.5444C72.6465 30.2174 72.9905 29.173 73.6786 28.4112C74.3667 27.6248 75.4848 27.0718 77.033 26.7524C78.5812 26.4083 80.6332 26.2363 83.189 26.2363H85.1427V29.1115H83.2258C81.9725 29.1115 80.9527 29.1853 80.1663 29.3327C79.4045 29.4556 78.8516 29.6768 78.5075 29.9962C78.188 30.3157 78.0283 30.758 78.0283 31.3233C78.0283 32.0114 78.2618 32.5766 78.7287 33.0189C79.2202 33.4613 79.9205 33.6824 80.8298 33.6824C81.5425 33.6824 82.1691 33.5227 82.7098 33.2032C83.275 32.8592 83.7173 32.4045 84.0368 31.8393C84.3563 31.2495 84.516 30.586 84.516 29.8488V25.6097C84.516 24.5284 84.2703 23.7666 83.7788 23.3242C83.2873 22.8573 82.4517 22.6238 81.2722 22.6238C80.6086 22.6238 79.8837 22.7099 79.0973 22.8819C78.3355 23.0293 77.4877 23.2874 76.5538 23.656C76.0132 23.9017 75.534 23.9632 75.1162 23.8403C74.6984 23.6928 74.379 23.4471 74.1578 23.103C73.9366 22.7344 73.826 22.3412 73.826 21.9235C73.826 21.4811 73.9489 21.0634 74.1947 20.6702C74.4404 20.2524 74.8459 19.9452 75.4111 19.7486C76.5661 19.2817 77.6474 18.9622 78.655 18.7902C79.6871 18.6182 80.6332 18.5322 81.4933 18.5322C83.3856 18.5322 84.9338 18.8148 86.1379 19.38C87.3667 19.9206 88.2882 20.7685 88.9026 21.9235C89.5169 23.0539 89.8241 24.5161 89.8241 26.31V34.4934C89.8241 35.4026 89.603 36.103 89.1606 36.5945C88.7183 37.086 88.0793 37.3318 87.2438 37.3318C86.4083 37.3318 85.757 37.086 85.2901 36.5945C84.8478 36.103 84.6266 35.4026 84.6266 34.4934V33.1295L84.8846 33.3507C84.7372 34.1862 84.4177 34.9112 83.9262 35.5255C83.4593 36.1153 82.8572 36.5822 82.12 36.9263C81.3827 37.2457 80.5349 37.4055 79.5765 37.4055ZM96.7778 37.3318C95.8685 37.3318 95.1681 37.086 94.6766 36.5945C94.2097 36.103 93.9763 35.4026 93.9763 34.4934V21.4074C93.9763 20.4981 94.2097 19.81 94.6766 19.3431C95.1681 18.8516 95.8439 18.6059 96.7041 18.6059C97.5887 18.6059 98.2645 18.8516 98.7315 19.3431C99.1984 19.81 99.4318 20.4981 99.4318 21.4074V23.5085L99.0264 22.2921C99.5916 21.0879 100.427 20.1664 101.533 19.5274C102.663 18.8639 103.941 18.5322 105.367 18.5322C106.817 18.5322 108.008 18.8148 108.942 19.38C109.876 19.9206 110.576 20.7562 111.043 21.8866C111.51 22.9925 111.744 24.4055 111.744 26.1257V34.4934C111.744 35.4026 111.498 36.103 111.006 36.5945C110.54 37.086 109.851 37.3318 108.942 37.3318C108.058 37.3318 107.369 37.086 106.878 36.5945C106.411 36.103 106.178 35.4026 106.178 34.4934V26.3838C106.178 25.1305 105.944 24.2335 105.477 23.6928C105.035 23.1276 104.347 22.845 103.413 22.845C102.233 22.845 101.287 23.2136 100.575 23.9509C99.8865 24.6881 99.5424 25.6711 99.5424 26.8998V34.4934C99.5424 36.3856 98.6209 37.3318 96.7778 37.3318ZM124.598 44.0406C123.271 44.0406 121.994 43.93 120.765 43.7089C119.561 43.4877 118.492 43.1559 117.558 42.7136C116.993 42.4679 116.587 42.1484 116.341 41.7552C116.12 41.362 116.022 40.9442 116.046 40.5019C116.096 40.0595 116.243 39.6663 116.489 39.3223C116.759 38.9783 117.091 38.7325 117.484 38.5851C117.877 38.4622 118.295 38.4991 118.737 38.6956C119.819 39.1871 120.814 39.5066 121.723 39.6541C122.657 39.8015 123.456 39.8752 124.119 39.8752C125.692 39.8752 126.872 39.5189 127.658 38.8062C128.444 38.0936 128.838 37 128.838 35.5255V32.724H129.169C128.801 33.8544 128.039 34.776 126.884 35.4887C125.729 36.2013 124.451 36.5577 123.05 36.5577C121.428 36.5577 120.015 36.189 118.811 35.4518C117.607 34.69 116.673 33.6333 116.01 32.2817C115.346 30.9055 115.014 29.3204 115.014 27.5265C115.014 26.1749 115.199 24.9461 115.567 23.8403C115.96 22.7344 116.501 21.7883 117.189 21.0019C117.902 20.2155 118.75 19.6134 119.733 19.1957C120.74 18.7533 121.846 18.5322 123.05 18.5322C124.5 18.5322 125.778 18.8885 126.884 19.6012C128.014 20.2893 128.764 21.1985 129.132 22.3289L128.764 23.5085V21.4074C128.764 20.4981 128.997 19.81 129.464 19.3431C129.956 18.8516 130.644 18.6059 131.529 18.6059C132.413 18.6059 133.089 18.8516 133.556 19.3431C134.023 19.81 134.256 20.4981 134.256 21.4074V34.8989C134.256 37.9215 133.421 40.1947 131.75 41.7183C130.103 43.2665 127.719 44.0406 124.598 44.0406ZM124.709 32.3923C125.545 32.3923 126.257 32.1957 126.847 31.8025C127.461 31.4093 127.941 30.8563 128.285 30.1437C128.629 29.4064 128.801 28.534 128.801 27.5265C128.801 26.0029 128.42 24.8233 127.658 23.9877C126.921 23.1276 125.938 22.6976 124.709 22.6976C123.874 22.6976 123.149 22.8942 122.534 23.2874C121.92 23.656 121.441 24.2089 121.097 24.9461C120.777 25.6588 120.617 26.5189 120.617 27.5265C120.617 29.0501 120.986 30.242 121.723 31.1021C122.46 31.9622 123.456 32.3923 124.709 32.3923ZM141.932 37.3318C140.998 37.3318 140.286 37.0737 139.794 36.5577C139.303 36.0416 139.057 35.3166 139.057 34.3828V13.9244C139.057 12.966 139.303 12.2411 139.794 11.7496C140.31 11.2581 141.035 11.0123 141.969 11.0123H150.927C153.826 11.0123 156.063 11.7496 157.635 13.224C159.208 14.6739 159.995 16.7014 159.995 19.3063C159.995 21.9112 159.208 23.9509 157.635 25.4253C156.063 26.8998 153.826 27.6371 150.927 27.6371H144.771V34.3828C144.771 35.3166 144.525 36.0416 144.033 36.5577C143.566 37.0737 142.866 37.3318 141.932 37.3318ZM144.771 23.2136H149.968C151.443 23.2136 152.561 22.8819 153.323 22.2184C154.109 21.5548 154.502 20.5841 154.502 19.3063C154.502 18.0284 154.109 17.07 153.323 16.431C152.561 15.7921 151.443 15.4726 149.968 15.4726H144.771V23.2136ZM168.348 37.4055C167.021 37.4055 165.829 37.1474 164.772 36.6314C163.715 36.1153 162.892 35.4149 162.302 34.5302C161.712 33.6456 161.418 32.6503 161.418 31.5444C161.418 30.2174 161.762 29.173 162.45 28.4112C163.138 27.6248 164.256 27.0718 165.804 26.7524C167.352 26.4083 169.404 26.2363 171.96 26.2363H173.914V29.1115H171.997C170.744 29.1115 169.724 29.1853 168.937 29.3327C168.176 29.4556 167.623 29.6768 167.279 29.9962C166.959 30.3157 166.799 30.758 166.799 31.3233C166.799 32.0114 167.033 32.5766 167.5 33.0189C167.991 33.4613 168.692 33.6824 169.601 33.6824C170.314 33.6824 170.94 33.5227 171.481 33.2032C172.046 32.8592 172.488 32.4045 172.808 31.8393C173.127 31.2495 173.287 30.586 173.287 29.8488V25.6097C173.287 24.5284 173.041 23.7666 172.55 23.3242C172.058 22.8573 171.223 22.6238 170.043 22.6238C169.38 22.6238 168.655 22.7099 167.868 22.8819C167.107 23.0293 166.259 23.2874 165.325 23.656C164.784 23.9017 164.305 23.9632 163.887 23.8403C163.469 23.6928 163.15 23.4471 162.929 23.103C162.708 22.7344 162.597 22.3412 162.597 21.9235C162.597 21.4811 162.72 21.0634 162.966 20.6702C163.211 20.2524 163.617 19.9452 164.182 19.7486C165.337 19.2817 166.418 18.9622 167.426 18.7902C168.458 18.6182 169.404 18.5322 170.264 18.5322C172.157 18.5322 173.705 18.8148 174.909 19.38C176.138 19.9206 177.059 20.7685 177.674 21.9235C178.288 23.0539 178.595 24.5161 178.595 26.31V34.4934C178.595 35.4026 178.374 36.103 177.932 36.5945C177.489 37.086 176.85 37.3318 176.015 37.3318C175.179 37.3318 174.528 37.086 174.061 36.5945C173.619 36.103 173.398 35.4026 173.398 34.4934V33.1295L173.656 33.3507C173.508 34.1862 173.189 34.9112 172.697 35.5255C172.23 36.1153 171.628 36.5822 170.891 36.9263C170.154 37.2457 169.306 37.4055 168.348 37.4055ZM189.272 37.4055C187.085 37.4055 185.451 36.8034 184.369 35.5992C183.288 34.3705 182.747 32.552 182.747 30.1437V13.5189C182.747 12.5851 182.981 11.8847 183.448 11.4178C183.939 10.9263 184.64 10.6806 185.549 10.6806C186.434 10.6806 187.109 10.9263 187.576 11.4178C188.068 11.8847 188.313 12.5851 188.313 13.5189V29.9225C188.313 30.9301 188.522 31.6796 188.94 32.1711C189.382 32.638 189.96 32.8715 190.673 32.8715C190.869 32.8715 191.054 32.8592 191.226 32.8346C191.398 32.81 191.582 32.7977 191.778 32.7977C192.172 32.7486 192.442 32.8715 192.589 33.1664C192.761 33.4367 192.847 33.9896 192.847 34.8251C192.847 35.5624 192.7 36.1276 192.405 36.5208C192.11 36.8894 191.656 37.1352 191.041 37.258C190.795 37.2826 190.513 37.3072 190.193 37.3318C189.874 37.3809 189.567 37.4055 189.272 37.4055Z" fill="#F9C710"/>
</svg>
